<svg width="120" height="89" viewBox="0 0 120 89" fill="none" xmlns="http://www.w3.org/2000/svg">
<path fill-rule="evenodd" clip-rule="evenodd" d="M0.759277 8.75698V70.9323H11.4792V72.2187C11.4792 80.981 18.5824 88.0842 27.3446 88.0842C36.1068 88.0842 43.21 80.981 43.21 72.2187V70.9323H79.2289V72.2187C79.2289 80.981 86.3321 88.0842 95.0943 88.0842C103.857 88.0842 110.96 80.981 110.96 72.2187V70.9323H119.536V44.7758L109.245 29.3392L106.243 25.0512H87.376V0.609863L11.4678 0.99715C6.60428 1.02196 2.29727 4.14301 0.759277 8.75698ZM27.3446 82.081C32.5546 82.081 36.7781 77.8575 36.7781 72.6475C36.7781 67.4375 32.5546 63.214 27.3446 63.214C22.1346 63.214 17.9111 67.4375 17.9111 72.6475C17.9111 77.8575 22.1346 82.081 27.3446 82.081ZM89.52 30.1968V44.347H111.389L102.813 30.1968H89.52ZM95.9519 82.081C101.162 82.081 105.385 77.8575 105.385 72.6475C105.385 67.4375 101.162 63.214 95.9519 63.214C90.7419 63.214 86.5184 67.4375 86.5184 72.6475C86.5184 77.8575 90.7419 82.081 95.9519 82.081Z" fill="white"/>
</svg>
