<svg width="268" height="73" viewBox="0 0 268 73" fill="none" xmlns="http://www.w3.org/2000/svg">
<path d="M96.3084 24.6699V31.4499C96.3084 33.2299 97.1384 34.1199 98.7984 34.1199C99.2584 34.1199 99.7584 34.0399 100.298 33.8799V36.8499C99.6384 37.0899 98.8384 37.2099 97.8984 37.2099C96.1784 37.2099 94.8584 36.7299 93.9384 35.7699C93.0184 34.8099 92.5584 33.4299 92.5584 31.6299V24.6699H89.6484V21.8499H92.5584V18.1599L96.3084 16.8999V21.8499H100.328V24.6699H96.3084Z" fill="black"/>
<path d="M111.066 21.49C111.646 21.49 112.146 21.57 112.566 21.73L112.536 25.15C111.896 24.89 111.236 24.76 110.556 24.76C109.276 24.76 108.296 25.13 107.616 25.87C106.956 26.61 106.626 27.59 106.626 28.81V37H102.906V26.14C102.906 24.54 102.826 23.11 102.666 21.85H106.176L106.476 24.52C106.856 23.54 107.456 22.79 108.276 22.27C109.096 21.75 110.026 21.49 111.066 21.49Z" fill="black"/>
<path d="M128.454 21.8499V36.9999H124.794V34.6599C124.314 35.4999 123.674 36.1399 122.874 36.5799C122.074 37.0199 121.154 37.2399 120.114 37.2399C116.414 37.2399 114.564 35.1599 114.564 30.9999V21.8499H118.284V31.0299C118.284 32.1299 118.504 32.9399 118.944 33.4599C119.404 33.9799 120.104 34.2399 121.044 34.2399C122.144 34.2399 123.024 33.8799 123.684 33.1599C124.344 32.4399 124.674 31.4799 124.674 30.2799V21.8499H128.454Z" fill="black"/>
<path d="M139.395 37.24C137.815 37.24 136.445 36.92 135.285 36.28C134.125 35.64 133.235 34.74 132.615 33.58C131.995 32.4 131.685 31.02 131.685 29.44C131.685 27.86 132.005 26.47 132.645 25.27C133.305 24.07 134.225 23.14 135.405 22.48C136.605 21.8 137.985 21.46 139.545 21.46C140.625 21.46 141.665 21.63 142.665 21.97C143.685 22.31 144.495 22.78 145.095 23.38L144.045 26.02C143.405 25.5 142.725 25.11 142.005 24.85C141.285 24.57 140.575 24.43 139.875 24.43C138.515 24.43 137.455 24.86 136.695 25.72C135.935 26.56 135.555 27.78 135.555 29.38C135.555 30.98 135.925 32.2 136.665 33.04C137.425 33.88 138.495 34.3 139.875 34.3C140.575 34.3 141.285 34.16 142.005 33.88C142.725 33.6 143.405 33.2 144.045 32.68L145.095 35.32C144.455 35.92 143.625 36.39 142.605 36.73C141.585 37.07 140.515 37.24 139.395 37.24Z" fill="black"/>
<path d="M157.963 36.9999L151.333 30.0099V36.9999H147.613V14.9199H151.333V28.5399L157.573 21.8799H162.103L155.293 29.1099L162.643 36.9999H157.963Z" fill="black"/>
<path d="M177.191 29.62H166.751C166.831 31.24 167.231 32.44 167.951 33.22C168.691 33.98 169.781 34.36 171.221 34.36C172.881 34.36 174.421 33.82 175.841 32.74L176.921 35.32C176.201 35.9 175.311 36.37 174.251 36.73C173.211 37.07 172.151 37.24 171.071 37.24C168.591 37.24 166.641 36.54 165.221 35.14C163.801 33.74 163.091 31.82 163.091 29.38C163.091 27.84 163.401 26.47 164.021 25.27C164.641 24.07 165.511 23.14 166.631 22.48C167.751 21.8 169.021 21.46 170.441 21.46C172.521 21.46 174.161 22.14 175.361 23.5C176.581 24.84 177.191 26.69 177.191 29.05V29.62ZM170.531 24.16C169.531 24.16 168.711 24.46 168.071 25.06C167.451 25.64 167.051 26.49 166.871 27.61H173.921C173.801 26.47 173.451 25.61 172.871 25.03C172.311 24.45 171.531 24.16 170.531 24.16Z" fill="black"/>
<path d="M188.527 21.49C189.107 21.49 189.607 21.57 190.027 21.73L189.997 25.15C189.357 24.89 188.697 24.76 188.017 24.76C186.737 24.76 185.757 25.13 185.077 25.87C184.417 26.61 184.087 27.59 184.087 28.81V37H180.367V26.14C180.367 24.54 180.287 23.11 180.127 21.85H183.637L183.937 24.52C184.317 23.54 184.917 22.79 185.737 22.27C186.557 21.75 187.487 21.49 188.527 21.49Z" fill="black"/>
<path d="M198.985 37.24C197.405 37.24 196.035 36.92 194.875 36.28C193.715 35.64 192.825 34.74 192.205 33.58C191.585 32.4 191.275 31.02 191.275 29.44C191.275 27.86 191.595 26.47 192.235 25.27C192.895 24.07 193.815 23.14 194.995 22.48C196.195 21.8 197.575 21.46 199.135 21.46C200.215 21.46 201.255 21.63 202.255 21.97C203.275 22.31 204.085 22.78 204.685 23.38L203.635 26.02C202.995 25.5 202.315 25.11 201.595 24.85C200.875 24.57 200.165 24.43 199.465 24.43C198.105 24.43 197.045 24.86 196.285 25.72C195.525 26.56 195.145 27.78 195.145 29.38C195.145 30.98 195.515 32.2 196.255 33.04C197.015 33.88 198.085 34.3 199.465 34.3C200.165 34.3 200.875 34.16 201.595 33.88C202.315 33.6 202.995 33.2 203.635 32.68L204.685 35.32C204.045 35.92 203.215 36.39 202.195 36.73C201.175 37.07 200.105 37.24 198.985 37.24Z" fill="black"/>
<path d="M214.073 37.24C212.533 37.24 211.173 36.92 209.993 36.28C208.832 35.64 207.932 34.73 207.292 33.55C206.672 32.35 206.362 30.95 206.362 29.35C206.362 27.75 206.672 26.36 207.292 25.18C207.932 23.98 208.832 23.06 209.993 22.42C211.173 21.78 212.533 21.46 214.073 21.46C215.592 21.46 216.933 21.78 218.093 22.42C219.253 23.06 220.143 23.98 220.763 25.18C221.403 26.36 221.723 27.75 221.723 29.35C221.723 30.95 221.403 32.35 220.763 33.55C220.143 34.73 219.253 35.64 218.093 36.28C216.933 36.92 215.592 37.24 214.073 37.24ZM214.042 34.3C215.322 34.3 216.292 33.89 216.952 33.07C217.632 32.23 217.973 30.99 217.973 29.35C217.973 27.73 217.632 26.5 216.952 25.66C216.272 24.8 215.312 24.37 214.073 24.37C212.812 24.37 211.842 24.8 211.162 25.66C210.482 26.5 210.143 27.73 210.143 29.35C210.143 30.99 210.472 32.23 211.132 33.07C211.812 33.89 212.782 34.3 214.042 34.3Z" fill="black"/>
<path d="M242.836 21.46C244.556 21.46 245.836 21.98 246.676 23.02C247.516 24.04 247.936 25.6 247.936 27.7V37H244.186V27.82C244.186 26.62 243.986 25.76 243.586 25.24C243.206 24.7 242.566 24.43 241.666 24.43C240.626 24.43 239.806 24.8 239.206 25.54C238.626 26.26 238.336 27.26 238.336 28.54V37H234.586V27.82C234.586 26.64 234.376 25.78 233.956 25.24C233.556 24.7 232.916 24.43 232.036 24.43C230.996 24.43 230.176 24.8 229.576 25.54C228.976 26.26 228.676 27.26 228.676 28.54V37H224.956V26.14C224.956 24.54 224.876 23.11 224.716 21.85H228.226L228.496 24.25C228.936 23.35 229.566 22.66 230.386 22.18C231.226 21.7 232.186 21.46 233.266 21.46C235.586 21.46 237.096 22.42 237.796 24.34C238.276 23.44 238.956 22.74 239.836 22.24C240.736 21.72 241.736 21.46 242.836 21.46Z" fill="black"/>
<path d="M260.579 21.46C261.879 21.46 263.029 21.8 264.029 22.48C265.049 23.14 265.839 24.08 266.399 25.3C266.979 26.5 267.269 27.88 267.269 29.44C267.269 31 266.989 32.37 266.429 33.55C265.869 34.73 265.079 35.64 264.059 36.28C263.059 36.92 261.899 37.24 260.579 37.24C259.479 37.24 258.499 37.01 257.639 36.55C256.779 36.07 256.119 35.41 255.659 34.57V43.48H251.939V26.14C251.939 24.54 251.859 23.11 251.699 21.85H255.209L255.509 24.46C255.909 23.52 256.559 22.79 257.459 22.27C258.359 21.73 259.399 21.46 260.579 21.46ZM259.559 34.3C260.819 34.3 261.789 33.88 262.469 33.04C263.149 32.2 263.489 31 263.489 29.44C263.489 27.86 263.149 26.63 262.469 25.75C261.789 24.85 260.829 24.4 259.589 24.4C258.309 24.4 257.329 24.83 256.649 25.69C255.969 26.55 255.629 27.78 255.629 29.38C255.629 30.96 255.969 32.18 256.649 33.04C257.329 33.88 258.299 34.3 259.559 34.3Z" fill="black"/>
<path d="M91.5825 57.1379C91.7785 57.3759 91.9908 57.5439 92.2195 57.6419C92.4528 57.7399 92.6978 57.7889 92.9545 57.7889C93.2205 57.7889 93.4585 57.7422 93.6685 57.6489C93.8832 57.5509 94.0652 57.4016 94.2145 57.2009C94.3638 56.9956 94.4782 56.7366 94.5575 56.4239C94.6368 56.1066 94.6765 55.7286 94.6765 55.2899C94.6765 54.5012 94.5458 53.9319 94.2845 53.5819C94.0232 53.2272 93.6475 53.0499 93.1575 53.0499C92.8262 53.0499 92.5368 53.1269 92.2895 53.2809C92.0422 53.4302 91.8065 53.6426 91.5825 53.9179V57.1379ZM91.5825 52.6999C91.8718 52.3966 92.1915 52.1562 92.5415 51.9789C92.8962 51.7969 93.2998 51.7059 93.7525 51.7059C94.1678 51.7059 94.5412 51.7876 94.8725 51.9509C95.2085 52.1142 95.4932 52.3499 95.7265 52.6579C95.9645 52.9612 96.1465 53.3299 96.2725 53.7639C96.3985 54.1979 96.4615 54.6856 96.4615 55.2269C96.4615 55.8102 96.3892 56.3399 96.2445 56.8159C96.0998 57.2919 95.8922 57.7002 95.6215 58.0409C95.3555 58.3769 95.0335 58.6382 94.6555 58.8249C94.2775 59.0116 93.8575 59.1049 93.3955 59.1049C93.1715 59.1049 92.9685 59.0816 92.7865 59.0349C92.6045 58.9929 92.4365 58.9322 92.2825 58.8529C92.1285 58.7736 91.9862 58.6779 91.8555 58.5659C91.7295 58.4492 91.6082 58.3209 91.4915 58.1809L91.4145 58.6639C91.3865 58.7852 91.3375 58.8716 91.2675 58.9229C91.2022 58.9742 91.1112 58.9999 90.9945 58.9999H89.8535V48.5979H91.5825V52.6999Z" fill="#5E5E5E"/>
<path d="M104.116 51.8179L100.203 60.9739C100.151 61.0952 100.084 61.1862 100 61.2469C99.921 61.3122 99.7973 61.3449 99.6293 61.3449H98.3413L99.6853 58.4609L96.7803 51.8179H98.2993C98.4346 51.8179 98.5396 51.8506 98.6143 51.9159C98.6936 51.9812 98.752 52.0559 98.7893 52.1399L100.315 55.8639C100.366 55.9899 100.408 56.1159 100.441 56.2419C100.478 56.3679 100.513 56.4962 100.546 56.6269C100.588 56.4962 100.63 56.3679 100.672 56.2419C100.714 56.1112 100.76 55.9829 100.812 55.8569L102.254 52.1399C102.291 52.0466 102.352 51.9696 102.436 51.9089C102.524 51.8482 102.622 51.8179 102.73 51.8179H104.116Z" fill="#5E5E5E"/>
<path d="M113.686 50.7189C113.63 50.8169 113.57 50.8892 113.504 50.9359C113.444 50.9779 113.367 50.9989 113.273 50.9989C113.175 50.9989 113.068 50.9639 112.951 50.8939C112.839 50.8192 112.704 50.7376 112.545 50.6489C112.387 50.5602 112.2 50.4809 111.985 50.4109C111.775 50.3362 111.526 50.2989 111.236 50.2989C110.975 50.2989 110.746 50.3316 110.55 50.3969C110.354 50.4576 110.189 50.5439 110.053 50.6559C109.923 50.7679 109.825 50.9032 109.759 51.0619C109.694 51.2159 109.661 51.3862 109.661 51.5729C109.661 51.8109 109.727 52.0092 109.857 52.1679C109.993 52.3266 110.17 52.4619 110.389 52.5739C110.609 52.6859 110.858 52.7862 111.138 52.8749C111.418 52.9636 111.705 53.0592 111.999 53.1619C112.293 53.2599 112.58 53.3766 112.86 53.5119C113.14 53.6426 113.39 53.8106 113.609 54.0159C113.829 54.2166 114.004 54.4639 114.134 54.7579C114.27 55.0519 114.337 55.4089 114.337 55.8289C114.337 56.2862 114.258 56.7156 114.099 57.1169C113.945 57.5136 113.717 57.8612 113.413 58.1599C113.115 58.4539 112.748 58.6872 112.314 58.8599C111.88 59.0279 111.383 59.1119 110.823 59.1119C110.501 59.1119 110.184 59.0792 109.871 59.0139C109.559 58.9532 109.258 58.8646 108.968 58.7479C108.684 58.6312 108.415 58.4912 108.163 58.3279C107.911 58.1646 107.687 57.9826 107.491 57.7819L108.044 56.8789C108.091 56.8136 108.152 56.7599 108.226 56.7179C108.301 56.6712 108.38 56.6479 108.464 56.6479C108.581 56.6479 108.707 56.6969 108.842 56.7949C108.978 56.8882 109.139 56.9932 109.325 57.1099C109.512 57.2266 109.729 57.3339 109.976 57.4319C110.228 57.5252 110.529 57.5719 110.879 57.5719C111.416 57.5719 111.831 57.4459 112.125 57.1939C112.419 56.9372 112.566 56.5709 112.566 56.0949C112.566 55.8289 112.499 55.6119 112.363 55.4439C112.233 55.2759 112.058 55.1359 111.838 55.0239C111.619 54.9072 111.369 54.8092 111.089 54.7299C110.809 54.6506 110.525 54.5642 110.235 54.4709C109.946 54.3776 109.661 54.2656 109.381 54.1349C109.101 54.0042 108.852 53.8339 108.632 53.6239C108.413 53.4139 108.236 53.1526 108.1 52.8399C107.97 52.5226 107.904 52.1329 107.904 51.6709C107.904 51.3022 107.977 50.9429 108.121 50.5929C108.271 50.2429 108.485 49.9326 108.765 49.6619C109.045 49.3912 109.391 49.1742 109.801 49.0109C110.212 48.8476 110.683 48.7659 111.215 48.7659C111.813 48.7659 112.363 48.8592 112.867 49.0459C113.371 49.2326 113.801 49.4939 114.155 49.8299L113.686 50.7189Z" fill="#5E5E5E"/>
<path d="M121.123 55.1779L119.891 51.8109C119.83 51.6616 119.767 51.4842 119.702 51.2789C119.637 51.0736 119.571 50.8519 119.506 50.6139C119.445 50.8519 119.382 51.0759 119.317 51.2859C119.252 51.4912 119.189 51.6709 119.128 51.8249L117.903 55.1779H121.123ZM124.448 58.9999H122.992C122.829 58.9999 122.696 58.9602 122.593 58.8809C122.49 58.7969 122.413 58.6942 122.362 58.5729L121.606 56.5079H117.413L116.657 58.5729C116.62 58.6802 116.547 58.7782 116.44 58.8669C116.333 58.9556 116.2 58.9999 116.041 58.9999H114.571L118.554 48.8779H120.472L124.448 58.9999Z" fill="#5E5E5E"/>
<path d="M128.555 53.6939C128.909 53.6939 129.217 53.6496 129.479 53.5609C129.745 53.4722 129.962 53.3509 130.13 53.1969C130.302 53.0382 130.431 52.8516 130.515 52.6369C130.599 52.4222 130.641 52.1866 130.641 51.9299C130.641 51.4166 130.47 51.0222 130.13 50.7469C129.794 50.4716 129.278 50.3339 128.583 50.3339H127.379V53.6939H128.555ZM133.399 58.9999H131.698C131.376 58.9999 131.142 58.8739 130.998 58.6219L128.87 55.3809C128.79 55.2596 128.702 55.1732 128.604 55.1219C128.51 55.0706 128.37 55.0449 128.184 55.0449H127.379V58.9999H125.496V48.8779H128.583C129.269 48.8779 129.857 48.9502 130.347 49.0949C130.841 49.2349 131.245 49.4332 131.558 49.6899C131.875 49.9466 132.108 50.2546 132.258 50.6139C132.407 50.9686 132.482 51.3606 132.482 51.7899C132.482 52.1306 132.43 52.4526 132.328 52.7559C132.23 53.0592 132.085 53.3346 131.894 53.5819C131.707 53.8292 131.474 54.0462 131.194 54.2329C130.918 54.4196 130.603 54.5666 130.249 54.6739C130.37 54.7439 130.482 54.8279 130.585 54.9259C130.687 55.0192 130.781 55.1312 130.865 55.2619L133.399 58.9999Z" fill="#5E5E5E"/>
<path d="M136.375 53.1199H136.816C136.993 53.1199 137.14 53.0966 137.257 53.0499C137.373 52.9986 137.474 52.9192 137.558 52.8119L140.351 49.2769C140.467 49.1276 140.589 49.0249 140.715 48.9689C140.845 48.9082 141.009 48.8779 141.205 48.8779H142.829L139.42 53.0849C139.219 53.3416 139.011 53.5236 138.797 53.6309C138.951 53.6869 139.088 53.7662 139.21 53.8689C139.336 53.9669 139.455 54.0976 139.567 54.2609L143.081 58.9999H141.422C141.198 58.9999 141.03 58.9696 140.918 58.9089C140.81 58.8436 140.719 58.7502 140.645 58.6289L137.782 54.8909C137.693 54.7649 137.59 54.6762 137.474 54.6249C137.357 54.5736 137.189 54.5479 136.97 54.5479H136.375V58.9999H134.492V48.8779H136.375V53.1199Z" fill="#5E5E5E"/>
<path d="M149.384 58.9999H147.494V48.8779H149.384V58.9999Z" fill="#5E5E5E"/>
<path d="M152.885 52.6998C153.029 52.5551 153.181 52.4221 153.34 52.3008C153.503 52.1748 153.673 52.0698 153.851 51.9858C154.033 51.8971 154.226 51.8295 154.432 51.7828C154.637 51.7315 154.861 51.7058 155.104 51.7058C155.496 51.7058 155.843 51.7735 156.147 51.9088C156.45 52.0395 156.702 52.2261 156.903 52.4688C157.108 52.7068 157.262 52.9938 157.365 53.3298C157.472 53.6611 157.526 54.0275 157.526 54.4288V58.9998H155.797V54.4288C155.797 53.9901 155.696 53.6518 155.496 53.4138C155.295 53.1711 154.989 53.0498 154.579 53.0498C154.28 53.0498 154 53.1175 153.739 53.2528C153.477 53.3881 153.23 53.5725 152.997 53.8058V58.9998H151.268V51.8178H152.325C152.549 51.8178 152.696 51.9228 152.766 52.1328L152.885 52.6998Z" fill="#5E5E5E"/>
<path d="M163.552 53.2178C163.505 53.2925 163.456 53.3461 163.405 53.3788C163.354 53.4068 163.288 53.4208 163.209 53.4208C163.125 53.4208 163.034 53.3975 162.936 53.3508C162.843 53.3041 162.733 53.2528 162.607 53.1968C162.481 53.1361 162.336 53.0825 162.173 53.0358C162.014 52.9891 161.825 52.9658 161.606 52.9658C161.265 52.9658 160.997 53.0381 160.801 53.1828C160.61 53.3275 160.514 53.5165 160.514 53.7498C160.514 53.9038 160.563 54.0345 160.661 54.1418C160.764 54.2445 160.897 54.3355 161.06 54.4148C161.228 54.4941 161.417 54.5665 161.627 54.6318C161.837 54.6925 162.049 54.7601 162.264 54.8348C162.483 54.9095 162.698 54.9958 162.908 55.0938C163.118 55.1871 163.305 55.3085 163.468 55.4578C163.636 55.6025 163.769 55.7775 163.867 55.9828C163.97 56.1881 164.021 56.4355 164.021 56.7248C164.021 57.0701 163.958 57.3898 163.832 57.6838C163.711 57.9731 163.529 58.2251 163.286 58.4398C163.043 58.6498 162.742 58.8155 162.383 58.9368C162.028 59.0535 161.618 59.1118 161.151 59.1118C160.904 59.1118 160.661 59.0885 160.423 59.0418C160.19 58.9998 159.963 58.9391 159.744 58.8598C159.529 58.7805 159.329 58.6871 159.142 58.5798C158.96 58.4725 158.799 58.3558 158.659 58.2298L159.058 57.5718C159.109 57.4925 159.17 57.4318 159.24 57.3898C159.31 57.3478 159.399 57.3268 159.506 57.3268C159.613 57.3268 159.714 57.3571 159.807 57.4178C159.905 57.4785 160.017 57.5438 160.143 57.6138C160.269 57.6838 160.416 57.7491 160.584 57.8098C160.757 57.8705 160.974 57.9008 161.235 57.9008C161.44 57.9008 161.615 57.8775 161.76 57.8308C161.909 57.7795 162.031 57.7141 162.124 57.6348C162.222 57.5555 162.292 57.4645 162.334 57.3618C162.381 57.2545 162.404 57.1448 162.404 57.0328C162.404 56.8648 162.353 56.7271 162.25 56.6198C162.152 56.5125 162.019 56.4191 161.851 56.3398C161.688 56.2605 161.499 56.1905 161.284 56.1298C161.074 56.0645 160.857 55.9945 160.633 55.9198C160.414 55.8451 160.197 55.7588 159.982 55.6608C159.772 55.5581 159.583 55.4298 159.415 55.2758C159.252 55.1218 159.119 54.9328 159.016 54.7088C158.918 54.4848 158.869 54.2141 158.869 53.8968C158.869 53.6028 158.927 53.3228 159.044 53.0568C159.161 52.7908 159.331 52.5598 159.555 52.3638C159.784 52.1631 160.066 52.0045 160.402 51.8878C160.743 51.7665 161.135 51.7058 161.578 51.7058C162.073 51.7058 162.523 51.7875 162.929 51.9508C163.335 52.1141 163.673 52.3288 163.944 52.5948L163.552 53.2178Z" fill="#5E5E5E"/>
<path d="M171.51 51.8179V58.9999H170.453C170.225 58.9999 170.08 58.8949 170.019 58.6849L169.9 58.1109C169.606 58.4096 169.282 58.6522 168.927 58.8389C168.573 59.0209 168.155 59.1119 167.674 59.1119C167.282 59.1119 166.935 59.0466 166.631 58.9159C166.333 58.7806 166.081 58.5916 165.875 58.3489C165.67 58.1062 165.514 57.8192 165.406 57.4879C165.304 57.1519 165.252 56.7832 165.252 56.3819V51.8179H166.981V56.3819C166.981 56.8206 167.082 57.1612 167.282 57.4039C167.488 57.6419 167.793 57.7609 168.199 57.7609C168.498 57.7609 168.778 57.6956 169.039 57.5649C169.301 57.4296 169.548 57.2452 169.781 57.0119V51.8179H171.51Z" fill="#5E5E5E"/>
<path d="M174.856 53.0638C175.08 52.6345 175.346 52.2985 175.654 52.0558C175.962 51.8085 176.326 51.6848 176.746 51.6848C177.077 51.6848 177.343 51.7571 177.544 51.9018L177.432 53.1968C177.408 53.2808 177.373 53.3415 177.327 53.3788C177.285 53.4115 177.226 53.4278 177.152 53.4278C177.082 53.4278 176.977 53.4161 176.837 53.3928C176.701 53.3695 176.568 53.3578 176.438 53.3578C176.246 53.3578 176.076 53.3858 175.927 53.4418C175.777 53.4978 175.642 53.5795 175.521 53.6868C175.404 53.7895 175.299 53.9155 175.206 54.0648C175.117 54.2141 175.033 54.3845 174.954 54.5758V58.9998H173.225V51.8178H174.24C174.417 51.8178 174.541 51.8505 174.611 51.9158C174.681 51.9765 174.727 52.0885 174.751 52.2518L174.856 53.0638Z" fill="#5E5E5E"/>
<path d="M182.146 55.9338C181.646 55.9571 181.226 56.0015 180.886 56.0668C180.545 56.1275 180.272 56.2068 180.067 56.3048C179.861 56.4028 179.714 56.5171 179.626 56.6478C179.537 56.7785 179.493 56.9208 179.493 57.0748C179.493 57.3781 179.581 57.5951 179.759 57.7258C179.941 57.8565 180.176 57.9218 180.466 57.9218C180.82 57.9218 181.126 57.8588 181.383 57.7328C181.644 57.6021 181.898 57.4061 182.146 57.1448V55.9338ZM178.184 52.8188C179.01 52.0628 180.004 51.6848 181.166 51.6848C181.586 51.6848 181.961 51.7548 182.293 51.8948C182.624 52.0301 182.904 52.2215 183.133 52.4688C183.361 52.7115 183.534 53.0031 183.651 53.3438C183.772 53.6845 183.833 54.0578 183.833 54.4638V58.9998H183.049C182.885 58.9998 182.759 58.9765 182.671 58.9298C182.582 58.8785 182.512 58.7781 182.461 58.6288L182.307 58.1108C182.125 58.2741 181.947 58.4188 181.775 58.5448C181.602 58.6661 181.422 58.7688 181.236 58.8528C181.049 58.9368 180.848 58.9998 180.634 59.0418C180.424 59.0885 180.19 59.1118 179.934 59.1118C179.63 59.1118 179.35 59.0721 179.094 58.9928C178.837 58.9088 178.615 58.7851 178.429 58.6218C178.242 58.4585 178.097 58.2555 177.995 58.0128C177.892 57.7701 177.841 57.4878 177.841 57.1658C177.841 56.9838 177.871 56.8041 177.932 56.6268C177.992 56.4448 178.09 56.2721 178.226 56.1088C178.366 55.9455 178.545 55.7915 178.765 55.6468C178.984 55.5021 179.252 55.3761 179.57 55.2688C179.892 55.1615 180.265 55.0751 180.69 55.0098C181.114 54.9398 181.6 54.8978 182.146 54.8838V54.4638C182.146 53.9831 182.043 53.6285 181.838 53.3998C181.632 53.1665 181.336 53.0498 180.949 53.0498C180.669 53.0498 180.435 53.0825 180.249 53.1478C180.067 53.2131 179.906 53.2878 179.766 53.3718C179.626 53.4511 179.497 53.5235 179.381 53.5888C179.269 53.6541 179.143 53.6868 179.003 53.6868C178.881 53.6868 178.779 53.6565 178.695 53.5958C178.611 53.5305 178.543 53.4558 178.492 53.3718L178.184 52.8188Z" fill="#5E5E5E"/>
<path d="M187.078 52.6998C187.223 52.5551 187.374 52.4221 187.533 52.3008C187.696 52.1748 187.867 52.0698 188.044 51.9858C188.226 51.8971 188.42 51.8295 188.625 51.7828C188.83 51.7315 189.054 51.7058 189.297 51.7058C189.689 51.7058 190.037 51.7735 190.34 51.9088C190.643 52.0395 190.895 52.2261 191.096 52.4688C191.301 52.7068 191.455 52.9938 191.558 53.3298C191.665 53.6611 191.719 54.0275 191.719 54.4288V58.9998H189.99V54.4288C189.99 53.9901 189.89 53.6518 189.689 53.4138C189.488 53.1711 189.183 53.0498 188.772 53.0498C188.473 53.0498 188.193 53.1175 187.932 53.2528C187.671 53.3881 187.423 53.5725 187.19 53.8058V58.9998H185.461V51.8178H186.518C186.742 51.8178 186.889 51.9228 186.959 52.1328L187.078 52.6998Z" fill="#5E5E5E"/>
<path d="M198.508 53.3368C198.457 53.4021 198.406 53.4535 198.354 53.4908C198.308 53.5281 198.238 53.5468 198.144 53.5468C198.056 53.5468 197.969 53.5211 197.885 53.4698C197.801 53.4138 197.701 53.3531 197.584 53.2878C197.468 53.2178 197.328 53.1571 197.164 53.1058C197.006 53.0498 196.807 53.0218 196.569 53.0218C196.266 53.0218 196 53.0778 195.771 53.1898C195.543 53.2971 195.351 53.4535 195.197 53.6588C195.048 53.8641 194.936 54.1138 194.861 54.4078C194.787 54.6971 194.749 55.0261 194.749 55.3948C194.749 55.7775 194.789 56.1181 194.868 56.4168C194.952 56.7155 195.071 56.9675 195.225 57.1728C195.379 57.3735 195.566 57.5275 195.785 57.6348C196.005 57.7375 196.252 57.7888 196.527 57.7888C196.803 57.7888 197.024 57.7561 197.192 57.6908C197.365 57.6208 197.51 57.5461 197.626 57.4668C197.743 57.3828 197.843 57.3081 197.927 57.2428C198.016 57.1728 198.114 57.1378 198.221 57.1378C198.361 57.1378 198.466 57.1915 198.536 57.2988L199.033 57.9288C198.842 58.1528 198.634 58.3418 198.41 58.4958C198.186 58.6451 197.953 58.7665 197.71 58.8598C197.472 58.9485 197.225 59.0115 196.968 59.0488C196.716 59.0861 196.464 59.1048 196.212 59.1048C195.769 59.1048 195.351 59.0231 194.959 58.8598C194.567 58.6918 194.224 58.4491 193.93 58.1318C193.636 57.8145 193.403 57.4271 193.23 56.9698C193.062 56.5078 192.978 55.9828 192.978 55.3948C192.978 54.8675 193.053 54.3798 193.202 53.9318C193.356 53.4791 193.58 53.0895 193.874 52.7628C194.168 52.4315 194.532 52.1725 194.966 51.9858C195.4 51.7991 195.9 51.7058 196.464 51.7058C197.001 51.7058 197.47 51.7921 197.871 51.9648C198.277 52.1375 198.641 52.3848 198.963 52.7068L198.508 53.3368Z" fill="#5E5E5E"/>
<path d="M204.621 54.5828C204.621 54.3588 204.588 54.1488 204.523 53.9528C204.462 53.7521 204.369 53.5771 204.243 53.4278C204.117 53.2785 203.956 53.1618 203.76 53.0778C203.569 52.9891 203.345 52.9448 203.088 52.9448C202.589 52.9448 202.194 53.0871 201.905 53.3718C201.62 53.6565 201.438 54.0601 201.359 54.5828H204.621ZM201.324 55.6258C201.352 55.9945 201.417 56.3141 201.52 56.5848C201.623 56.8508 201.758 57.0725 201.926 57.2498C202.094 57.4225 202.292 57.5531 202.521 57.6418C202.754 57.7258 203.011 57.7678 203.291 57.7678C203.571 57.7678 203.811 57.7351 204.012 57.6698C204.217 57.6045 204.395 57.5321 204.544 57.4528C204.698 57.3735 204.831 57.3011 204.943 57.2358C205.06 57.1705 205.172 57.1378 205.279 57.1378C205.424 57.1378 205.531 57.1915 205.601 57.2988L206.098 57.9288C205.907 58.1528 205.692 58.3418 205.454 58.4958C205.216 58.6451 204.966 58.7665 204.705 58.8598C204.448 58.9485 204.185 59.0115 203.914 59.0488C203.648 59.0861 203.389 59.1048 203.137 59.1048C202.638 59.1048 202.173 59.0231 201.744 58.8598C201.315 58.6918 200.941 58.4468 200.624 58.1248C200.307 57.7981 200.057 57.3968 199.875 56.9208C199.693 56.4401 199.602 55.8848 199.602 55.2548C199.602 54.7648 199.681 54.3051 199.84 53.8758C199.999 53.4418 200.225 53.0661 200.519 52.7488C200.818 52.4268 201.179 52.1725 201.604 51.9858C202.033 51.7991 202.516 51.7058 203.053 51.7058C203.506 51.7058 203.923 51.7781 204.306 51.9228C204.689 52.0675 205.018 52.2798 205.293 52.5598C205.568 52.8351 205.783 53.1758 205.937 53.5818C206.096 53.9831 206.175 54.4428 206.175 54.9608C206.175 55.2221 206.147 55.3995 206.091 55.4928C206.035 55.5815 205.928 55.6258 205.769 55.6258H201.324Z" fill="#5E5E5E"/>
<path d="M216.54 50.7189C216.484 50.8169 216.423 50.8892 216.358 50.9359C216.297 50.9779 216.22 50.9989 216.127 50.9989C216.029 50.9989 215.922 50.9639 215.805 50.8939C215.693 50.8192 215.558 50.7376 215.399 50.6489C215.24 50.5602 215.054 50.4809 214.839 50.4109C214.629 50.3362 214.379 50.2989 214.09 50.2989C213.829 50.2989 213.6 50.3316 213.404 50.3969C213.208 50.4576 213.042 50.5439 212.907 50.6559C212.776 50.7679 212.678 50.9032 212.613 51.0619C212.548 51.2159 212.515 51.3862 212.515 51.5729C212.515 51.8109 212.58 52.0092 212.711 52.1679C212.846 52.3266 213.024 52.4619 213.243 52.5739C213.462 52.6859 213.712 52.7862 213.992 52.8749C214.272 52.9636 214.559 53.0592 214.853 53.1619C215.147 53.2599 215.434 53.3766 215.714 53.5119C215.994 53.6426 216.244 53.8106 216.463 54.0159C216.682 54.2166 216.857 54.4639 216.988 54.7579C217.123 55.0519 217.191 55.4089 217.191 55.8289C217.191 56.2862 217.112 56.7156 216.953 57.1169C216.799 57.5136 216.57 57.8612 216.267 58.1599C215.968 58.4539 215.602 58.6872 215.168 58.8599C214.734 59.0279 214.237 59.1119 213.677 59.1119C213.355 59.1119 213.038 59.0792 212.725 59.0139C212.412 58.9532 212.111 58.8646 211.822 58.7479C211.537 58.6312 211.269 58.4912 211.017 58.3279C210.765 58.1646 210.541 57.9826 210.345 57.7819L210.898 56.8789C210.945 56.8136 211.005 56.7599 211.08 56.7179C211.155 56.6712 211.234 56.6479 211.318 56.6479C211.435 56.6479 211.561 56.6969 211.696 56.7949C211.831 56.8882 211.992 56.9932 212.179 57.1099C212.366 57.2266 212.583 57.3339 212.83 57.4319C213.082 57.5252 213.383 57.5719 213.733 57.5719C214.27 57.5719 214.685 57.4459 214.979 57.1939C215.273 56.9372 215.42 56.5709 215.42 56.0949C215.42 55.8289 215.352 55.6119 215.217 55.4439C215.086 55.2759 214.911 55.1359 214.692 55.0239C214.473 54.9072 214.223 54.8092 213.943 54.7299C213.663 54.6506 213.378 54.5642 213.089 54.4709C212.8 54.3776 212.515 54.2656 212.235 54.1349C211.955 54.0042 211.705 53.8339 211.486 53.6239C211.267 53.4139 211.089 53.1526 210.954 52.8399C210.823 52.5226 210.758 52.1329 210.758 51.6709C210.758 51.3022 210.83 50.9429 210.975 50.5929C211.124 50.2429 211.339 49.9326 211.619 49.6619C211.899 49.3912 212.244 49.1742 212.655 49.0109C213.066 48.8476 213.537 48.7659 214.069 48.7659C214.666 48.7659 215.217 48.8592 215.721 49.0459C216.225 49.2326 216.654 49.4939 217.009 49.8299L216.54 50.7189Z" fill="#5E5E5E"/>
<path d="M223.16 54.5828C223.16 54.3588 223.128 54.1488 223.062 53.9528C223.002 53.7521 222.908 53.5771 222.782 53.4278C222.656 53.2785 222.495 53.1618 222.299 53.0778C222.108 52.9891 221.884 52.9448 221.627 52.9448C221.128 52.9448 220.734 53.0871 220.444 53.3718C220.16 53.6565 219.978 54.0601 219.898 54.5828H223.16ZM219.863 55.6258C219.891 55.9945 219.957 56.3141 220.059 56.5848C220.162 56.8508 220.297 57.0725 220.465 57.2498C220.633 57.4225 220.832 57.5531 221.06 57.6418C221.294 57.7258 221.55 57.7678 221.83 57.7678C222.11 57.7678 222.351 57.7351 222.551 57.6698C222.757 57.6045 222.934 57.5321 223.083 57.4528C223.237 57.3735 223.37 57.3011 223.482 57.2358C223.599 57.1705 223.711 57.1378 223.818 57.1378C223.963 57.1378 224.07 57.1915 224.14 57.2988L224.637 57.9288C224.446 58.1528 224.231 58.3418 223.993 58.4958C223.755 58.6451 223.506 58.7665 223.244 58.8598C222.988 58.9485 222.724 59.0115 222.453 59.0488C222.187 59.0861 221.928 59.1048 221.676 59.1048C221.177 59.1048 220.713 59.0231 220.283 58.8598C219.854 58.6918 219.481 58.4468 219.163 58.1248C218.846 57.7981 218.596 57.3968 218.414 56.9208C218.232 56.4401 218.141 55.8848 218.141 55.2548C218.141 54.7648 218.221 54.3051 218.379 53.8758C218.538 53.4418 218.764 53.0661 219.058 52.7488C219.357 52.4268 219.719 52.1725 220.143 51.9858C220.573 51.7991 221.056 51.7058 221.592 51.7058C222.045 51.7058 222.463 51.7781 222.845 51.9228C223.228 52.0675 223.557 52.2798 223.832 52.5598C224.108 52.8351 224.322 53.1758 224.476 53.5818C224.635 53.9831 224.714 54.4428 224.714 54.9608C224.714 55.2221 224.686 55.3995 224.63 55.4928C224.574 55.5815 224.467 55.6258 224.308 55.6258H219.863Z" fill="#5E5E5E"/>
<path d="M227.643 53.0638C227.867 52.6345 228.133 52.2985 228.441 52.0558C228.749 51.8085 229.113 51.6848 229.533 51.6848C229.864 51.6848 230.13 51.7571 230.331 51.9018L230.219 53.1968C230.195 53.2808 230.16 53.3415 230.114 53.3788C230.072 53.4115 230.013 53.4278 229.939 53.4278C229.869 53.4278 229.764 53.4161 229.624 53.3928C229.488 53.3695 229.355 53.3578 229.225 53.3578C229.033 53.3578 228.863 53.3858 228.714 53.4418C228.564 53.4978 228.429 53.5795 228.308 53.6868C228.191 53.7895 228.086 53.9155 227.993 54.0648C227.904 54.2141 227.82 54.3845 227.741 54.5758V58.9998H226.012V51.8178H227.027C227.204 51.8178 227.328 51.8505 227.398 51.9158C227.468 51.9765 227.514 52.0885 227.538 52.2518L227.643 53.0638Z" fill="#5E5E5E"/>
<path d="M237.709 51.8179L234.86 58.9999H233.292L230.443 51.8179H231.871C232.002 51.8179 232.109 51.8482 232.193 51.9089C232.282 51.9696 232.34 52.0466 232.368 52.1399L233.754 55.9759C233.829 56.1999 233.894 56.4192 233.95 56.6339C234.006 56.8486 234.055 57.0632 234.097 57.2779C234.144 57.0632 234.195 56.8486 234.251 56.6339C234.307 56.4192 234.375 56.1999 234.454 55.9759L235.868 52.1399C235.901 52.0466 235.959 51.9696 236.043 51.9089C236.127 51.8482 236.228 51.8179 236.344 51.8179H237.709Z" fill="#5E5E5E"/>
<path d="M240.423 51.8179V58.9999H238.687V51.8179H240.423ZM240.661 49.7249C240.661 49.8742 240.631 50.0142 240.57 50.1449C240.509 50.2756 240.428 50.3899 240.325 50.4879C240.227 50.5859 240.11 50.6652 239.975 50.7259C239.84 50.7819 239.695 50.8099 239.541 50.8099C239.392 50.8099 239.249 50.7819 239.114 50.7259C238.983 50.6652 238.869 50.5859 238.771 50.4879C238.673 50.3899 238.594 50.2756 238.533 50.1449C238.477 50.0142 238.449 49.8742 238.449 49.7249C238.449 49.5709 238.477 49.4262 238.533 49.2909C238.594 49.1556 238.673 49.0389 238.771 48.9409C238.869 48.8429 238.983 48.7659 239.114 48.7099C239.249 48.6492 239.392 48.6189 239.541 48.6189C239.695 48.6189 239.84 48.6492 239.975 48.7099C240.11 48.7659 240.227 48.8429 240.325 48.9409C240.428 49.0389 240.509 49.1556 240.57 49.2909C240.631 49.4262 240.661 49.5709 240.661 49.7249Z" fill="#5E5E5E"/>
<path d="M247.331 53.3368C247.279 53.4021 247.228 53.4535 247.177 53.4908C247.13 53.5281 247.06 53.5468 246.967 53.5468C246.878 53.5468 246.792 53.5211 246.708 53.4698C246.624 53.4138 246.523 53.3531 246.407 53.2878C246.29 53.2178 246.15 53.1571 245.987 53.1058C245.828 53.0498 245.63 53.0218 245.392 53.0218C245.088 53.0218 244.822 53.0778 244.594 53.1898C244.365 53.2971 244.174 53.4535 244.02 53.6588C243.87 53.8641 243.758 54.1138 243.684 54.4078C243.609 54.6971 243.572 55.0261 243.572 55.3948C243.572 55.7775 243.611 56.1181 243.691 56.4168C243.775 56.7155 243.894 56.9675 244.048 57.1728C244.202 57.3735 244.388 57.5275 244.608 57.6348C244.827 57.7375 245.074 57.7888 245.35 57.7888C245.625 57.7888 245.847 57.7561 246.015 57.6908C246.187 57.6208 246.332 57.5461 246.449 57.4668C246.565 57.3828 246.666 57.3081 246.75 57.2428C246.838 57.1728 246.936 57.1378 247.044 57.1378C247.184 57.1378 247.289 57.1915 247.359 57.2988L247.856 57.9288C247.664 58.1528 247.457 58.3418 247.233 58.4958C247.009 58.6451 246.775 58.7665 246.533 58.8598C246.295 58.9485 246.047 59.0115 245.791 59.0488C245.539 59.0861 245.287 59.1048 245.035 59.1048C244.591 59.1048 244.174 59.0231 243.782 58.8598C243.39 58.6918 243.047 58.4491 242.753 58.1318C242.459 57.8145 242.225 57.4271 242.053 56.9698C241.885 56.5078 241.801 55.9828 241.801 55.3948C241.801 54.8675 241.875 54.3798 242.025 53.9318C242.179 53.4791 242.403 53.0895 242.697 52.7628C242.991 52.4315 243.355 52.1725 243.789 51.9858C244.223 51.7991 244.722 51.7058 245.287 51.7058C245.823 51.7058 246.292 51.7921 246.694 51.9648C247.1 52.1375 247.464 52.3848 247.786 52.7068L247.331 53.3368Z" fill="#5E5E5E"/>
<path d="M253.443 54.5828C253.443 54.3588 253.411 54.1488 253.345 53.9528C253.285 53.7521 253.191 53.5771 253.065 53.4278C252.939 53.2785 252.778 53.1618 252.582 53.0778C252.391 52.9891 252.167 52.9448 251.91 52.9448C251.411 52.9448 251.017 53.0871 250.727 53.3718C250.443 53.6565 250.261 54.0601 250.181 54.5828H253.443ZM250.146 55.6258C250.174 55.9945 250.24 56.3141 250.342 56.5848C250.445 56.8508 250.58 57.0725 250.748 57.2498C250.916 57.4225 251.115 57.5531 251.343 57.6418C251.577 57.7258 251.833 57.7678 252.113 57.7678C252.393 57.7678 252.634 57.7351 252.834 57.6698C253.04 57.6045 253.217 57.5321 253.366 57.4528C253.52 57.3735 253.653 57.3011 253.765 57.2358C253.882 57.1705 253.994 57.1378 254.101 57.1378C254.246 57.1378 254.353 57.1915 254.423 57.2988L254.92 57.9288C254.729 58.1528 254.514 58.3418 254.276 58.4958C254.038 58.6451 253.789 58.7665 253.527 58.8598C253.271 58.9485 253.007 59.0115 252.736 59.0488C252.47 59.0861 252.211 59.1048 251.959 59.1048C251.46 59.1048 250.996 59.0231 250.566 58.8598C250.137 58.6918 249.764 58.4468 249.446 58.1248C249.129 57.7981 248.879 57.3968 248.697 56.9208C248.515 56.4401 248.424 55.8848 248.424 55.2548C248.424 54.7648 248.504 54.3051 248.662 53.8758C248.821 53.4418 249.047 53.0661 249.341 52.7488C249.64 52.4268 250.002 52.1725 250.426 51.9858C250.856 51.7991 251.339 51.7058 251.875 51.7058C252.328 51.7058 252.746 51.7781 253.128 51.9228C253.511 52.0675 253.84 52.2798 254.115 52.5598C254.391 52.8351 254.605 53.1758 254.759 53.5818C254.918 53.9831 254.997 54.4428 254.997 54.9608C254.997 55.2221 254.969 55.3995 254.913 55.4928C254.857 55.5815 254.75 55.6258 254.591 55.6258H250.146Z" fill="#5E5E5E"/>
<path d="M260.677 53.2178C260.63 53.2925 260.581 53.3461 260.53 53.3788C260.479 53.4068 260.413 53.4208 260.334 53.4208C260.25 53.4208 260.159 53.3975 260.061 53.3508C259.968 53.3041 259.858 53.2528 259.732 53.1968C259.606 53.1361 259.461 53.0825 259.298 53.0358C259.139 52.9891 258.95 52.9658 258.731 52.9658C258.39 52.9658 258.122 53.0381 257.926 53.1828C257.735 53.3275 257.639 53.5165 257.639 53.7498C257.639 53.9038 257.688 54.0345 257.786 54.1418C257.889 54.2445 258.022 54.3355 258.185 54.4148C258.353 54.4941 258.542 54.5665 258.752 54.6318C258.962 54.6925 259.174 54.7601 259.389 54.8348C259.608 54.9095 259.823 54.9958 260.033 55.0938C260.243 55.1871 260.43 55.3085 260.593 55.4578C260.761 55.6025 260.894 55.7775 260.992 55.9828C261.095 56.1881 261.146 56.4355 261.146 56.7248C261.146 57.0701 261.083 57.3898 260.957 57.6838C260.836 57.9731 260.654 58.2251 260.411 58.4398C260.168 58.6498 259.867 58.8155 259.508 58.9368C259.153 59.0535 258.743 59.1118 258.276 59.1118C258.029 59.1118 257.786 59.0885 257.548 59.0418C257.315 58.9998 257.088 58.9391 256.869 58.8598C256.654 58.7805 256.454 58.6871 256.267 58.5798C256.085 58.4725 255.924 58.3558 255.784 58.2298L256.183 57.5718C256.234 57.4925 256.295 57.4318 256.365 57.3898C256.435 57.3478 256.524 57.3268 256.631 57.3268C256.738 57.3268 256.839 57.3571 256.932 57.4178C257.03 57.4785 257.142 57.5438 257.268 57.6138C257.394 57.6838 257.541 57.7491 257.709 57.8098C257.882 57.8705 258.099 57.9008 258.36 57.9008C258.565 57.9008 258.74 57.8775 258.885 57.8308C259.034 57.7795 259.156 57.7141 259.249 57.6348C259.347 57.5555 259.417 57.4645 259.459 57.3618C259.506 57.2545 259.529 57.1448 259.529 57.0328C259.529 56.8648 259.478 56.7271 259.375 56.6198C259.277 56.5125 259.144 56.4191 258.976 56.3398C258.813 56.2605 258.624 56.1905 258.409 56.1298C258.199 56.0645 257.982 55.9945 257.758 55.9198C257.539 55.8451 257.322 55.7588 257.107 55.6608C256.897 55.5581 256.708 55.4298 256.54 55.2758C256.377 55.1218 256.244 54.9328 256.141 54.7088C256.043 54.4848 255.994 54.2141 255.994 53.8968C255.994 53.6028 256.052 53.3228 256.169 53.0568C256.286 52.7908 256.456 52.5598 256.68 52.3638C256.909 52.1631 257.191 52.0045 257.527 51.8878C257.868 51.7665 258.26 51.7058 258.703 51.7058C259.198 51.7058 259.648 51.7875 260.054 51.9508C260.46 52.1141 260.798 52.3288 261.069 52.5948L260.677 53.2178Z" fill="#5E5E5E"/>
<path d="M31.6285 67.0955C31.6285 69.7636 29.3796 71.9264 26.6053 71.9264C23.831 71.9264 21.582 69.7636 21.582 67.0955C21.582 64.4275 23.831 62.2646 26.6053 62.2646C29.3796 62.2646 31.6285 64.4275 31.6285 67.0955Z" fill="#0096F8"/>
<path d="M61.0241 67.0955C61.0241 69.7636 58.7751 71.9264 56.0008 71.9264C53.2265 71.9264 50.9775 69.7636 50.9775 67.0955C50.9775 64.4275 53.2265 62.2646 56.0008 62.2646C58.7751 62.2646 61.0241 64.4275 61.0241 67.0955Z" fill="#9CD021"/>
<path d="M37.0232 27.196L25.4883 5.00977C37.9842 18.0834 44.4419 18.2198 54.6976 5.00977L45.3953 27.196C41.9892 26.3442 40.1372 26.2596 37.0232 27.196Z" fill="#0096F8"/>
<path d="M38.6977 47.5551L40.3722 73C34.7922 56.0725 29.6116 53.3871 14.5117 61.1912L32.3722 44.3726C35.0848 46.529 35.464 47.1382 38.6977 47.5551Z" fill="#0096F8"/>
<path d="M48.745 44.9094L69.4932 61.0788C52.8845 53.3193 47.1133 56.0209 42.6055 71.9265L42.3164 47.5932C45.808 47.1855 46.204 46.8786 48.7404 44.9129L48.745 44.9094Z" fill="#9CD021"/>
<path d="M31.0697 41.5099L10.0465 58.8652C20.3875 45.4678 17.0462 37.7211 1.48828 32.9216L29.9534 36.5074C29.8583 39.4574 29.4339 39.2567 31.0697 41.5099Z" fill="#EA4211"/>
<path d="M30.0779 34.174L4.65039 29.5221C22.9933 27.4844 25.921 22.543 20.8365 6.79907L33.9849 28.4486C31.2662 30.5979 31.1205 31.2008 30.0779 34.174Z" fill="#9CD021"/>
<path d="M51.9068 36.1423L79.2557 32.0271C61.2123 39.1564 59.7187 45.4398 71.0696 59.2232L50.6045 41.8678C52.5596 39.026 51.9936 39.3087 51.9068 36.1423Z" fill="#EA4211"/>
<path d="M47.6279 28.4486L61.3953 5.36768C56.3012 22.6024 59.8395 28.6574 77.2093 29.3432L51.5348 34.1741C50.4823 31.0008 50.1342 30.3854 47.6279 28.4486Z" fill="#9CD021"/>
<path d="M45.7682 4.83088C45.7682 7.49891 43.5192 9.66177 40.7449 9.66177C37.9707 9.66177 35.7217 7.49891 35.7217 4.83088C35.7217 2.16286 37.9707 0 40.7449 0C43.5192 0 45.7682 2.16286 45.7682 4.83088Z" fill="#0096F8"/>
<path d="M17.1158 17.7132C17.1158 20.3812 14.8669 22.5441 12.0926 22.5441C9.31832 22.5441 7.06934 20.3812 7.06934 17.7132C7.06934 15.0452 9.31832 12.8823 12.0926 12.8823C14.8669 12.8823 17.1158 15.0452 17.1158 17.7132Z" fill="#9CD021"/>
<path d="M10.0465 45.6251C10.0465 48.2931 7.79752 50.456 5.02326 50.456C2.24899 50.456 0 48.2931 0 45.6251C0 42.957 2.24899 40.7942 5.02326 40.7942C7.79752 40.7942 10.0465 42.957 10.0465 45.6251Z" fill="#EA4211"/>
<path d="M80.0006 45.6251C80.0006 48.2931 77.7516 50.456 74.9774 50.456C72.2031 50.456 69.9541 48.2931 69.9541 45.6251C69.9541 42.957 72.2031 40.7942 74.9774 40.7942C77.7516 40.7942 80.0006 42.957 80.0006 45.6251Z" fill="#EA4211"/>
<path d="M74.7907 17.7132C74.7907 20.3812 72.5417 22.5441 69.7674 22.5441C66.9931 22.5441 64.7441 20.3812 64.7441 17.7132C64.7441 15.0452 66.9931 12.8823 69.7674 12.8823C72.5417 12.8823 74.7907 15.0452 74.7907 17.7132Z" fill="#9CD021"/>
<path d="M50.6047 37.0368C50.6047 42.274 46.19 46.5196 40.7443 46.5196C35.2985 46.5196 30.8838 42.274 30.8838 37.0368C30.8838 31.7996 35.2985 27.554 40.7443 27.554C46.19 27.554 50.6047 31.7996 50.6047 37.0368Z" fill="#CB1802"/>
<path d="M48.0009 37.0368C48.0009 40.8906 44.7523 44.0147 40.7451 44.0147C36.7378 44.0147 33.4893 40.8906 33.4893 37.0368C33.4893 33.183 36.7378 30.0588 40.7451 30.0588C44.7523 30.0588 48.0009 33.183 48.0009 37.0368Z" fill="white"/>
<path d="M39.5938 35.2081L40.9369 31.1323L42.2799 35.2081L46.8845 35.4022L43.2392 38.5075L44.5054 42.5833L40.9369 39.8661L36.9078 42.5833L38.6345 38.5075L34.6055 35.4022L39.5938 35.2081Z" fill="#CB1802"/>
</svg>
