<svg width="195" height="144" viewBox="0 0 195 144" fill="none" xmlns="http://www.w3.org/2000/svg">
<circle cx="130.439" cy="16.723" r="13.723" fill="white" stroke="#1C2243" stroke-width="6"/>
<path d="M110 55V52.0786C110 45.044 113.674 38.4409 119.603 34.6554V34.6554C126.357 30.3433 135.118 30.3515 141.799 34.7753V34.7753C147.469 38.5291 150.878 44.8757 150.878 51.6753V55" stroke="#1C2243" stroke-width="6"/>
<circle cx="58.4395" cy="16.723" r="13.723" fill="white" stroke="#1C2243" stroke-width="6"/>
<path d="M38 55V52.0786C38 45.044 41.674 38.4409 47.6032 34.6554V34.6554C54.3573 30.3433 63.1177 30.3515 69.7992 34.7753V34.7753C75.4688 38.5291 78.8784 44.8757 78.8784 51.6753V55" stroke="#1C2243" stroke-width="6"/>
<circle cx="37.4395" cy="55.723" r="13.723" fill="white" stroke="#1C2243" stroke-width="6"/>
<path d="M17 94V91.0786C17 84.044 20.674 77.4409 26.6032 73.6554V73.6554C33.3573 69.3433 42.1177 69.3515 48.7992 73.7753V73.7753C54.4688 77.5291 57.8784 83.8757 57.8784 90.6753V94" stroke="#1C2243" stroke-width="6"/>
<circle cx="154.439" cy="55.723" r="13.723" fill="white" stroke="#1C2243" stroke-width="6"/>
<path d="M134 94V91.0786C134 84.044 137.674 77.4409 143.603 73.6554V73.6554C150.357 69.3433 159.118 69.3515 165.799 73.7753V73.7753C171.469 77.5291 174.878 83.8757 174.878 90.6753V94" stroke="#1C2243" stroke-width="6"/>
<circle cx="95.9998" cy="49.8182" r="24.8182" fill="white" stroke="#1C2243" stroke-width="6"/>
<path d="M62.3951 109.862L63 140.5H130V109.146C130 97.2245 123.571 86.2301 113.181 80.3848L112.446 79.9711C102.526 74.3905 90.4317 74.3151 80.4437 79.7716L79.5677 80.2501C68.7715 86.1481 62.1523 97.5619 62.3951 109.862Z" fill="white" stroke="#1C2243" stroke-width="6"/>
<circle cx="23.4395" cy="96.723" r="13.723" fill="white" stroke="#1C2243" stroke-width="6"/>
<path d="M3 135V132.079C3 125.044 6.67402 118.441 12.6032 114.655V114.655C19.3573 110.343 28.1177 110.352 34.7992 114.775V114.775C40.4688 118.529 43.8784 124.876 43.8784 131.675V135" stroke="#1C2243" stroke-width="6"/>
<circle cx="171.439" cy="96.723" r="13.723" fill="white" stroke="#1C2243" stroke-width="6"/>
<path d="M151 135V132.079C151 125.044 154.674 118.441 160.603 114.655V114.655C167.357 110.343 176.118 110.352 182.799 114.775V114.775C188.469 118.529 191.878 124.876 191.878 131.675V135" stroke="#1C2243" stroke-width="6"/>
</svg>
