<svg width="141" height="97" viewBox="0 0 141 97" fill="none" xmlns="http://www.w3.org/2000/svg">
<path d="M118 92V76.5H136.017C137.115 76.5 138.007 75.6148 138.017 74.5168L138.483 19.0168C138.492 17.9057 137.594 17 136.483 17H56C54.3431 17 53 18.3431 53 20V73.5C53 75.1569 54.3431 76.5 56 76.5H101.5L118 92Z" fill="white" stroke="#1C2243" stroke-width="4"/>
<path d="M22.5 77V61.5H4.48326C3.38525 61.5 2.49256 60.6148 2.48333 59.5168L2.01695 4.01681C2.00761 2.90571 2.90574 2 4.01688 2H84.5C86.1569 2 87.5 3.34315 87.5 5V58.5C87.5 60.1569 86.1569 61.5 84.5 61.5H39L22.5 77Z" fill="white" stroke="#1C2243" stroke-width="4"/>
<path d="M31.54 19.34L30.136 22.544C29.224 22.208 28.312 21.944 27.4 21.752C26.488 21.536 25.612 21.404 24.772 21.356V28.736C25.66 29.072 26.56 29.444 27.472 29.852C28.408 30.26 29.236 30.764 29.956 31.364C30.7 31.94 31.3 32.648 31.756 33.488C32.236 34.328 32.476 35.36 32.476 36.584C32.476 38.672 31.792 40.364 30.424 41.66C29.056 42.956 27.172 43.772 24.772 44.108V46.448H22.504V44.288H22.432C21.4 44.288 20.452 44.204 19.588 44.036C18.748 43.892 17.98 43.712 17.284 43.496C16.612 43.256 16.024 43.016 15.52 42.776C15.016 42.512 14.596 42.272 14.26 42.056L15.988 38.636C16.948 39.188 18.016 39.632 19.192 39.968C20.368 40.304 21.436 40.472 22.396 40.472H22.504V31.724C21.64 31.412 20.788 31.064 19.948 30.68C19.132 30.296 18.4 29.852 17.752 29.348C17.104 28.82 16.576 28.208 16.168 27.512C15.76 26.792 15.556 25.928 15.556 24.92C15.556 24.128 15.7 23.348 15.988 22.58C16.276 21.788 16.708 21.068 17.284 20.42C17.884 19.772 18.616 19.22 19.48 18.764C20.344 18.308 21.352 18.008 22.504 17.864V15.488H24.772V17.792C25.564 17.84 26.344 17.936 27.112 18.08C27.88 18.224 28.564 18.38 29.164 18.548C29.788 18.716 30.304 18.884 30.712 19.052C31.144 19.196 31.42 19.292 31.54 19.34ZM28.588 36.548C28.588 36.068 28.48 35.636 28.264 35.252C28.072 34.868 27.808 34.52 27.472 34.208C27.136 33.872 26.728 33.584 26.248 33.344C25.792 33.08 25.3 32.828 24.772 32.588V40.148C25.228 40.028 25.684 39.872 26.14 39.68C26.596 39.488 27.004 39.248 27.364 38.96C27.724 38.672 28.012 38.336 28.228 37.952C28.468 37.544 28.588 37.076 28.588 36.548ZM19.444 24.632C19.444 25.4 19.732 26.024 20.308 26.504C20.884 26.984 21.616 27.428 22.504 27.836V21.572C21.544 21.812 20.788 22.208 20.236 22.76C19.708 23.288 19.444 23.912 19.444 24.632ZM52.4931 19.34L51.0891 22.544C50.1771 22.208 49.2651 21.944 48.3531 21.752C47.4411 21.536 46.5651 21.404 45.7251 21.356V28.736C46.6131 29.072 47.5131 29.444 48.4251 29.852C49.3611 30.26 50.1891 30.764 50.9091 31.364C51.6531 31.94 52.2531 32.648 52.7091 33.488C53.1891 34.328 53.4291 35.36 53.4291 36.584C53.4291 38.672 52.7451 40.364 51.3771 41.66C50.0091 42.956 48.1251 43.772 45.7251 44.108V46.448H43.4571V44.288H43.3851C42.3531 44.288 41.4051 44.204 40.5411 44.036C39.7011 43.892 38.9331 43.712 38.2371 43.496C37.5651 43.256 36.9771 43.016 36.4731 42.776C35.9691 42.512 35.5491 42.272 35.2131 42.056L36.9411 38.636C37.9011 39.188 38.9691 39.632 40.1451 39.968C41.3211 40.304 42.3891 40.472 43.3491 40.472H43.4571V31.724C42.5931 31.412 41.7411 31.064 40.9011 30.68C40.0851 30.296 39.3531 29.852 38.7051 29.348C38.0571 28.82 37.5291 28.208 37.1211 27.512C36.7131 26.792 36.5091 25.928 36.5091 24.92C36.5091 24.128 36.6531 23.348 36.9411 22.58C37.2291 21.788 37.6611 21.068 38.2371 20.42C38.8371 19.772 39.5691 19.22 40.4331 18.764C41.2971 18.308 42.3051 18.008 43.4571 17.864V15.488H45.7251V17.792C46.5171 17.84 47.2971 17.936 48.0651 18.08C48.8331 18.224 49.5171 18.38 50.1171 18.548C50.7411 18.716 51.2571 18.884 51.6651 19.052C52.0971 19.196 52.3731 19.292 52.4931 19.34ZM49.5411 36.548C49.5411 36.068 49.4331 35.636 49.2171 35.252C49.0251 34.868 48.7611 34.52 48.4251 34.208C48.0891 33.872 47.6811 33.584 47.2011 33.344C46.7451 33.08 46.2531 32.828 45.7251 32.588V40.148C46.1811 40.028 46.6371 39.872 47.0931 39.68C47.5491 39.488 47.9571 39.248 48.3171 38.96C48.6771 38.672 48.9651 38.336 49.1811 37.952C49.4211 37.544 49.5411 37.076 49.5411 36.548ZM40.3971 24.632C40.3971 25.4 40.6851 26.024 41.2611 26.504C41.8371 26.984 42.5691 27.428 43.4571 27.836V21.572C42.4971 21.812 41.7411 22.208 41.1891 22.76C40.6611 23.288 40.3971 23.912 40.3971 24.632ZM73.4463 19.34L72.0423 22.544C71.1303 22.208 70.2183 21.944 69.3063 21.752C68.3943 21.536 67.5183 21.404 66.6783 21.356V28.736C67.5663 29.072 68.4663 29.444 69.3783 29.852C70.3143 30.26 71.1423 30.764 71.8623 31.364C72.6063 31.94 73.2063 32.648 73.6623 33.488C74.1423 34.328 74.3823 35.36 74.3823 36.584C74.3823 38.672 73.6983 40.364 72.3303 41.66C70.9623 42.956 69.0783 43.772 66.6783 44.108V46.448H64.4102V44.288H64.3383C63.3063 44.288 62.3583 44.204 61.4943 44.036C60.6543 43.892 59.8863 43.712 59.1903 43.496C58.5183 43.256 57.9303 43.016 57.4263 42.776C56.9223 42.512 56.5023 42.272 56.1663 42.056L57.8943 38.636C58.8543 39.188 59.9223 39.632 61.0983 39.968C62.2743 40.304 63.3423 40.472 64.3023 40.472H64.4102V31.724C63.5463 31.412 62.6943 31.064 61.8543 30.68C61.0383 30.296 60.3063 29.852 59.6582 29.348C59.0103 28.82 58.4823 28.208 58.0743 27.512C57.6663 26.792 57.4623 25.928 57.4623 24.92C57.4623 24.128 57.6063 23.348 57.8943 22.58C58.1823 21.788 58.6143 21.068 59.1903 20.42C59.7903 19.772 60.5223 19.22 61.3863 18.764C62.2503 18.308 63.2583 18.008 64.4102 17.864V15.488H66.6783V17.792C67.4703 17.84 68.2503 17.936 69.0183 18.08C69.7863 18.224 70.4703 18.38 71.0703 18.548C71.6943 18.716 72.2103 18.884 72.6183 19.052C73.0503 19.196 73.3263 19.292 73.4463 19.34ZM70.4943 36.548C70.4943 36.068 70.3863 35.636 70.1703 35.252C69.9783 34.868 69.7143 34.52 69.3783 34.208C69.0423 33.872 68.6343 33.584 68.1543 33.344C67.6983 33.08 67.2063 32.828 66.6783 32.588V40.148C67.1343 40.028 67.5903 39.872 68.0463 39.68C68.5023 39.488 68.9103 39.248 69.2703 38.96C69.6303 38.672 69.9183 38.336 70.1343 37.952C70.3743 37.544 70.4943 37.076 70.4943 36.548ZM61.3503 24.632C61.3503 25.4 61.6383 26.024 62.2143 26.504C62.7903 26.984 63.5223 27.428 64.4102 27.836V21.572C63.4503 21.812 62.6943 22.208 62.1423 22.76C61.6143 23.288 61.3503 23.912 61.3503 24.632Z" fill="#1C2243"/>
<path d="M104 46C104 48.7614 101.761 51 99 51C96.2386 51 94 48.7614 94 46C94 43.2386 96.2386 41 99 41C101.761 41 104 43.2386 104 46Z" fill="#1C2243"/>
<path d="M121 46C121 48.7614 118.761 51 116 51C113.239 51 111 48.7614 111 46C111 43.2386 113.239 41 116 41C118.761 41 121 43.2386 121 46Z" fill="#1C2243"/>
</svg>
