<svg width="204" height="203" viewBox="0 0 204 203" fill="none" xmlns="http://www.w3.org/2000/svg">
<path d="M129.5 158.5V198.5M74 158.5V198.5M50.5 198.5H152.5M200 117H164.5M3.5 117H40.5M40.5 117V29C40.5 26.7909 42.2909 25 44.5 25H122.5M40.5 117H164.5M122.5 25V63C122.5 65.7614 124.739 68 127.5 68H164.5M122.5 25L164.5 68M164.5 68V117M58.5 45H102M58.5 56H76.5" stroke="#1C2243" stroke-width="9"/>
<path d="M3.5 154V8C3.5 5.51472 5.51472 3.5 8 3.5H196C198.485 3.5 200.5 5.51471 200.5 8V154C200.5 156.485 198.485 158.5 196 158.5H8C5.51471 158.5 3.5 156.485 3.5 154Z" stroke="#1C2243" stroke-width="7"/>
</svg>
