<svg width="99" height="116" viewBox="0 0 99 116" fill="none" xmlns="http://www.w3.org/2000/svg">
<path fill-rule="evenodd" clip-rule="evenodd" d="M87.0641 77.7931H81.9186V66.2156L17.5992 65.7868V77.3643H9.88093L7.73695 74.3627V36.1999L10.3097 33.1983V26.7664L19.7432 1.03866L79.7746 0.609863L89.2081 26.7664V32.7695L91.7809 36.1999V74.3627L89.6369 77.3643L87.0641 77.7931ZM22.7448 6.613L16.3129 27.624V30.1968H83.205V27.1952L77.2018 6.613H22.7448ZM74.2002 54.6381C78.463 54.6381 81.9186 51.1825 81.9186 46.9198C81.9186 42.6571 78.463 39.2015 74.2002 39.2015C69.9375 39.2015 66.4819 42.6571 66.4819 46.9198C66.4819 51.1825 69.9375 54.6381 74.2002 54.6381ZM31.3207 46.9198C31.3207 51.1825 27.8651 54.6381 23.6024 54.6381C19.3397 54.6381 15.8841 51.1825 15.8841 46.9198C15.8841 42.6571 19.3397 39.2015 23.6024 39.2015C27.8651 39.2015 31.3207 42.6571 31.3207 46.9198Z" fill="white"/>
<path d="M0.876221 85.5114V95.8025H44.6134V115.527H54.9045V95.8025H98.6416V85.5114H0.876221Z" fill="white"/>
<path fill-rule="evenodd" clip-rule="evenodd" d="M87.0641 77.7931H81.9186V66.2156L17.5992 65.7868V77.3643H9.88093L7.73695 74.3627V36.1999L10.3097 33.1983V26.7664L19.7432 1.03866L79.7746 0.609863L89.2081 26.7664V32.7695L91.7809 36.1999V74.3627L89.6369 77.3643L87.0641 77.7931ZM22.7448 6.613L16.3129 27.624V30.1968H83.205V27.1952L77.2018 6.613H22.7448ZM74.2002 54.6381C78.463 54.6381 81.9186 51.1825 81.9186 46.9198C81.9186 42.6571 78.463 39.2015 74.2002 39.2015C69.9375 39.2015 66.4819 42.6571 66.4819 46.9198C66.4819 51.1825 69.9375 54.6381 74.2002 54.6381ZM31.3207 46.9198C31.3207 51.1825 27.8651 54.6381 23.6024 54.6381C19.3397 54.6381 15.8841 51.1825 15.8841 46.9198C15.8841 42.6571 19.3397 39.2015 23.6024 39.2015C27.8651 39.2015 31.3207 42.6571 31.3207 46.9198Z" stroke="white"/>
<path d="M0.876221 85.5114V95.8025H44.6134V115.527H54.9045V95.8025H98.6416V85.5114H0.876221Z" stroke="white"/>
</svg>
