<?xml version="1.0" standalone="no"?>
<!DOCTYPE svg PUBLIC "-//W3C//DTD SVG 20010904//EN"
 "http://www.w3.org/TR/2001/REC-SVG-20010904/DTD/svg10.dtd">
<svg version="1.0" xmlns="http://www.w3.org/2000/svg"
 width="860.000000pt" height="860.000000pt" viewBox="0 0 860.000000 860.000000"
 preserveAspectRatio="xMidYMid meet">
<metadata>
Created by potrace 1.14, written by Peter Selinger 2001-2017
</metadata>
<g transform="translate(0.000000,860.000000) scale(0.100000,-0.100000)"
fill="#000000" stroke="none">
<path d="M4253 8366 c-47 -12 -161 -62 -173 -75 -3 -3 -26 -23 -53 -44 -77
-63 -143 -170 -171 -280 -16 -62 -15 -202 2 -267 22 -88 77 -177 153 -250 62
-60 113 -91 199 -122 70 -25 235 -32 292 -12 21 7 38 11 38 7 0 -3 6 -1 13 4
6 6 23 13 37 16 26 7 107 57 148 92 45 38 114 136 139 198 30 74 32 82 39 177
4 66 1 99 -20 188 -8 37 -67 152 -77 152 -5 0 -9 5 -9 12 0 18 -112 120 -161
147 -115 62 -283 86 -396 57z"/>
<path d="M2750 7806 c0 -3 276 -558 613 -1233 336 -676 612 -1229 613 -1231 0
-1 22 4 47 12 26 8 47 12 47 9 0 -3 7 0 15 7 9 7 18 10 21 7 3 -3 18 -1 32 4
14 5 39 12 56 14 17 2 54 8 81 11 57 8 239 8 288 0 117 -20 178 -32 259 -51
58 -13 59 -13 68 8 15 40 52 132 63 157 6 14 11 27 12 30 1 3 7 18 13 33 7 16
12 30 12 31 0 2 8 21 17 42 9 22 17 41 18 44 3 11 26 66 35 85 5 11 18 43 28
70 10 28 23 59 27 70 5 11 9 22 10 25 1 3 5 14 10 25 5 11 23 55 41 97 17 42
29 79 26 82 -3 4 0 6 6 6 7 0 12 6 12 14 0 11 60 161 133 336 6 14 11 27 12
30 9 27 29 75 59 146 14 34 26 64 26 68 0 3 9 25 19 49 16 36 30 70 36 87 1 3
7 19 14 35 7 17 48 120 92 230 44 110 84 209 89 220 25 55 76 185 79 197 2 9
57 143 76 183 16 35 9 49 -10 20 -8 -11 -18 -25 -22 -30 -4 -6 -21 -28 -37
-50 -17 -22 -33 -42 -36 -45 -3 -3 -23 -27 -45 -55 -22 -27 -46 -58 -55 -67
-8 -9 -19 -23 -25 -30 -71 -95 -435 -466 -435 -444 0 3 -10 -5 -23 -17 -12
-12 -38 -33 -56 -47 -19 -14 -40 -31 -48 -38 -7 -7 -13 -10 -13 -6 0 4 -10 -2
-22 -13 -45 -40 -260 -153 -292 -153 -7 0 -16 -3 -20 -7 -3 -4 -12 -8 -19 -9
-7 -1 -40 -9 -75 -18 -119 -31 -271 -36 -392 -11 -33 7 -66 14 -87 19 -99 23
-399 160 -411 189 -2 4 -8 7 -14 7 -19 0 -242 162 -333 241 -11 10 -40 35 -64
56 -125 107 -416 392 -523 512 -27 29 -48 50 -48 47z"/>
<path d="M6573 7738 c-6 -7 -16 -28 -24 -45 -8 -18 -17 -33 -21 -33 -5 0 -8
-4 -8 -9 0 -4 -24 -50 -52 -100 -29 -51 -62 -109 -74 -129 -12 -20 -31 -55
-44 -77 -12 -22 -31 -56 -42 -75 -11 -19 -29 -51 -40 -70 -11 -19 -32 -55 -46
-80 -14 -25 -34 -57 -44 -72 -11 -16 -16 -28 -11 -28 4 0 3 -4 -3 -8 -6 -4
-28 -38 -50 -77 -21 -38 -45 -79 -51 -90 -7 -11 -16 -28 -19 -37 -3 -10 -11
-18 -16 -18 -5 0 -7 -4 -4 -9 3 -5 -1 -14 -9 -21 -8 -7 -15 -16 -15 -20 0 -4
-23 -47 -51 -96 -29 -49 -108 -188 -178 -309 -69 -121 -129 -223 -134 -226 -5
-3 -7 -8 -6 -10 2 -2 -15 -35 -38 -74 -22 -38 -52 -91 -66 -117 -14 -25 -37
-64 -51 -87 -14 -22 -26 -43 -26 -46 0 -3 -16 -31 -35 -61 -19 -30 -35 -57
-35 -59 0 -3 -10 -22 -23 -43 -13 -20 -37 -62 -54 -92 -44 -81 -127 -224 -133
-230 -3 -3 -15 -24 -27 -48 -24 -47 -25 -43 43 -97 61 -48 158 -148 192 -199
44 -64 77 -138 123 -268 21 -61 40 -112 42 -114 2 -2 82 12 178 31 96 20 188
37 204 40 33 4 68 12 93 19 9 3 35 8 57 11 64 11 79 14 105 20 14 3 37 7 53
10 15 3 42 8 60 11 17 4 41 8 52 9 11 2 20 4 20 5 0 1 7 3 15 5 38 8 137 27
160 30 14 2 36 7 50 10 49 10 135 28 150 30 8 2 17 4 20 5 3 1 8 2 11 2 4 -1
74 12 155 29 82 16 163 32 179 35 17 2 37 7 46 10 10 2 30 7 45 9 16 2 40 6
54 9 44 10 124 25 155 31 17 3 41 7 55 10 14 3 45 10 70 15 25 4 56 11 70 14
14 3 39 8 55 11 39 5 57 9 260 50 94 19 185 37 203 40 17 3 47 8 65 11 17 3
39 7 46 8 34 6 18 23 -21 23 -49 -1 -232 12 -268 18 -14 2 -54 6 -90 9 -36 4
-78 9 -95 11 -78 13 -93 15 -130 20 -22 3 -47 8 -55 11 -8 3 -31 8 -50 10
-126 17 -375 96 -520 167 -159 77 -359 238 -415 335 -11 17 -23 32 -27 32 -4
0 -8 4 -8 10 0 5 -13 32 -30 60 -16 27 -26 50 -22 50 4 0 2 4 -4 8 -9 6 -61
135 -69 172 -2 8 -10 46 -19 84 -24 102 -30 182 -30 376 0 152 6 274 19 353 2
12 6 45 10 72 8 69 62 357 80 430 9 33 17 69 20 80 2 11 10 40 16 65 6 25 12
52 13 60 2 8 11 42 20 75 10 33 20 68 22 78 11 49 13 57 10 57 -2 0 -8 -6 -13
-12z"/>
<path d="M2250 7588 c0 -2 7 -25 16 -53 57 -184 140 -516 160 -640 6 -35 11
-62 18 -91 4 -20 11 -69 23 -174 12 -98 6 -414 -10 -485 -31 -141 -38 -165
-80 -255 -72 -155 -214 -312 -362 -400 -22 -13 -42 -27 -45 -30 -14 -18 -296
-143 -350 -155 -8 -2 -42 -13 -75 -25 -55 -19 -191 -56 -240 -66 -44 -8 -121
-26 -135 -31 -8 -3 -28 -7 -45 -9 -16 -2 -41 -6 -55 -9 -14 -3 -36 -7 -50 -10
-14 -3 -36 -7 -49 -10 -13 -2 -49 -7 -80 -11 -31 -3 -58 -8 -61 -9 -3 -2 -26
-6 -50 -9 -25 -4 -61 -9 -80 -12 -40 -5 -129 -16 -147 -17 -7 0 -13 -4 -13 -9
0 -4 6 -9 13 -9 17 -2 90 -15 142 -25 63 -14 124 -25 154 -30 49 -8 71 -13 89
-18 9 -3 33 -8 52 -10 20 -3 47 -7 60 -10 14 -3 36 -8 50 -10 14 -3 36 -7 50
-10 41 -9 73 -15 110 -20 19 -3 46 -8 60 -11 14 -3 48 -10 75 -15 28 -5 62
-12 78 -15 15 -3 37 -7 50 -9 12 -3 47 -10 77 -16 30 -6 67 -13 81 -15 14 -2
64 -11 110 -20 46 -9 95 -18 109 -21 14 -2 36 -7 50 -10 46 -11 65 -14 109
-20 25 -3 48 -7 52 -10 4 -2 24 -7 45 -10 65 -10 79 -12 79 -14 0 -1 9 -3 20
-4 11 -2 49 -9 85 -16 36 -7 79 -14 95 -17 17 -3 37 -9 46 -14 9 -4 19 -6 21
-3 3 3 36 -2 74 -10 102 -22 234 -47 273 -52 19 -3 52 -9 75 -14 22 -5 55 -11
73 -14 17 -4 76 -15 129 -25 54 -11 101 -18 105 -15 4 2 22 48 40 102 17 53
35 102 39 107 5 6 8 14 9 18 0 20 59 128 97 177 40 53 120 132 198 197 l38 31
-37 69 c-21 37 -44 75 -51 84 -8 8 -14 20 -14 26 0 6 -8 21 -18 34 -11 13 -32
49 -49 79 -38 70 -117 205 -171 294 -23 37 -42 69 -42 71 0 2 -27 49 -60 104
-33 56 -60 106 -60 111 0 6 -4 10 -9 10 -5 0 -11 8 -14 18 -6 16 -23 46 -86
152 -58 98 -163 276 -182 311 -9 16 -22 36 -29 44 -7 8 -9 15 -5 15 5 0 1 8
-7 18 -9 9 -64 100 -123 202 -158 271 -165 283 -178 310 -6 14 -15 27 -18 30
-4 3 -22 32 -40 65 -18 33 -35 62 -38 65 -5 4 -18 26 -65 115 -6 11 -14 22
-17 25 -3 3 -22 35 -43 73 -31 56 -46 78 -46 65z"/>
<path d="M1185 6928 c-40 -8 -56 -14 -125 -47 -125 -58 -229 -178 -273 -316
-14 -43 -29 -128 -29 -160 4 -285 221 -520 501 -542 47 -3 99 -1 136 8 33 7
66 14 73 15 7 1 42 16 78 34 84 40 188 144 227 226 16 32 33 66 37 75 12 23
28 124 29 180 1 41 -4 77 -23 159 -14 60 -74 158 -136 220 -106 106 -210 151
-360 154 -52 2 -113 -1 -135 -6z"/>
<path d="M7363 6921 c-29 -10 -53 -17 -53 -14 0 2 -25 -10 -56 -26 -112 -61
-200 -156 -252 -274 -22 -51 -45 -154 -37 -167 3 -5 1 -11 -5 -15 -6 -4 -8
-10 -5 -14 2 -5 7 -35 10 -67 3 -32 11 -75 17 -94 15 -51 69 -160 79 -160 5 0
9 -5 9 -12 0 -16 105 -115 143 -134 18 -9 39 -22 47 -29 8 -8 20 -14 25 -16
12 -2 17 -3 70 -20 57 -18 204 -20 264 -4 27 7 52 10 55 7 3 -3 6 1 6 8 0 7 3
11 6 7 16 -15 128 57 197 126 59 59 92 111 125 196 22 57 25 82 25 181 0 100
-3 124 -25 181 -33 85 -66 136 -125 197 -40 41 -125 104 -143 107 -3 0 -32 11
-65 24 -81 32 -236 38 -312 12z"/>
<path d="M4269 5296 c-2 -2 -25 -6 -50 -9 -193 -23 -432 -142 -578 -288 -198
-196 -314 -457 -316 -706 0 -34 -4 -59 -9 -56 -5 4 -6 2 -3 -3 3 -5 8 -42 12
-82 7 -80 11 -107 30 -182 59 -233 235 -481 431 -607 10 -7 36 -24 57 -38 20
-13 37 -22 37 -19 0 3 13 -4 29 -15 16 -12 34 -21 40 -21 6 0 30 -8 54 -19
107 -47 249 -70 407 -66 163 4 290 33 422 97 75 36 178 98 178 107 0 4 12 14
28 24 64 40 187 176 245 273 38 64 96 187 100 213 1 9 5 21 9 26 13 23 40 165
43 235 2 41 5 77 6 80 1 3 0 10 -1 15 -1 6 -4 37 -6 70 -9 138 -37 241 -101
374 -41 86 -62 119 -136 215 -39 52 -139 145 -197 184 -30 20 -57 39 -60 42
-3 3 -27 17 -55 30 -27 14 -58 31 -67 39 -10 8 -18 11 -18 6 0 -4 -6 -3 -12 2
-21 16 -147 53 -230 67 -68 11 -280 20 -289 12z"/>
<path d="M8488 4795 c-2 -3 -22 -7 -44 -9 -41 -5 -87 -12 -144 -21 -19 -4 -51
-8 -70 -11 -19 -3 -44 -7 -55 -9 -11 -1 -42 -6 -70 -10 -27 -3 -57 -8 -65 -10
-8 -2 -35 -7 -60 -10 -25 -3 -70 -10 -100 -15 -30 -5 -71 -12 -90 -14 -38 -6
-78 -12 -125 -20 -16 -2 -50 -7 -75 -11 -59 -9 -89 -14 -120 -20 -13 -2 -42
-7 -65 -10 -22 -4 -53 -8 -70 -11 -16 -3 -43 -7 -60 -9 -30 -4 -149 -23 -195
-31 -14 -2 -43 -7 -65 -10 -22 -3 -78 -12 -125 -19 -112 -18 -158 -25 -200
-31 -19 -2 -57 -8 -85 -13 -27 -5 -71 -12 -96 -16 -58 -7 -98 -14 -126 -20
-25 -6 -98 -16 -133 -20 -14 -1 -38 -5 -55 -8 -16 -4 -46 -9 -65 -11 -41 -5
-104 -15 -140 -22 -14 -3 -41 -7 -60 -10 -78 -10 -135 -19 -195 -30 -11 -3
-38 -7 -60 -9 -22 -3 -52 -8 -67 -11 l-28 -6 6 -106 c11 -196 10 -210 -3 -263
-13 -52 -78 -181 -95 -187 -4 -2 -8 -8 -8 -14 0 -5 -9 -23 -20 -38 -23 -32
-28 -24 65 -105 32 -27 67 -59 79 -70 12 -11 53 -47 91 -80 38 -33 76 -67 85
-75 9 -8 50 -44 91 -79 41 -36 81 -72 90 -80 8 -9 39 -36 69 -61 29 -25 65
-56 80 -70 15 -14 58 -52 95 -85 38 -33 79 -69 91 -80 12 -11 48 -42 80 -70
31 -27 67 -59 78 -70 12 -11 53 -47 91 -80 39 -33 75 -64 81 -70 6 -5 41 -37
79 -70 37 -33 83 -73 101 -90 18 -16 43 -39 56 -49 13 -10 43 -37 68 -60 51
-46 182 -161 214 -189 12 -10 35 -30 52 -45 44 -39 155 -137 259 -228 49 -43
99 -87 110 -97 11 -10 29 -23 40 -29 17 -9 16 -6 -5 18 -14 16 -27 31 -30 34
-22 22 -224 300 -239 329 -6 11 -17 26 -23 33 -7 8 -18 23 -25 33 -6 11 -44
71 -82 132 -39 62 -71 117 -71 122 0 4 -7 14 -15 21 -8 7 -15 21 -15 30 0 10
-4 20 -9 22 -7 3 -63 115 -106 213 -20 46 -52 136 -65 180 -6 22 -14 47 -17
55 -3 8 -7 24 -9 35 -1 11 -5 34 -9 50 -15 70 -18 116 -18 225 1 265 105 486
336 713 79 77 266 224 342 268 22 13 42 26 45 29 19 23 434 243 585 310 28 12
73 32 100 45 28 12 75 32 105 45 89 36 120 51 120 55 0 6 -5 6 -12 0z"/>
<path d="M180 4695 c0 -2 26 -12 57 -21 56 -16 237 -82 298 -109 17 -7 59 -25
95 -40 203 -86 470 -237 595 -337 110 -88 251 -231 294 -298 8 -14 18 -27 21
-30 35 -33 120 -226 148 -335 33 -125 36 -345 7 -500 -22 -123 -88 -326 -148
-455 -17 -36 -31 -67 -31 -70 -8 -39 -277 -491 -297 -498 -5 -2 -9 -9 -9 -16
0 -7 -8 -21 -17 -32 -10 -10 -38 -48 -63 -84 l-45 -65 65 55 c102 87 121 103
149 129 14 13 46 40 71 60 24 20 51 43 60 51 9 8 38 33 64 55 26 22 58 49 70
60 13 11 47 40 76 65 29 25 73 63 98 85 24 22 53 45 64 51 10 5 15 13 12 17
-4 4 -3 7 3 7 9 0 45 30 164 133 20 18 60 53 90 78 46 39 379 324 474 406 17
14 53 45 80 69 78 67 97 83 149 128 28 22 60 50 72 62 12 11 34 31 50 43 16
12 55 46 88 74 73 65 94 83 147 127 23 19 54 46 69 60 16 14 39 34 51 44 13
11 38 32 56 47 l32 27 -41 64 c-92 141 -98 170 -83 406 5 72 3 92 -7 93 -7 1
-22 3 -33 4 -22 4 -99 13 -159 20 -22 2 -71 9 -110 15 -76 11 -129 18 -186 25
-39 5 -94 12 -149 20 -20 2 -56 7 -81 10 -25 2 -56 6 -70 9 -28 5 -91 13 -165
21 -49 5 -85 10 -135 19 -14 2 -52 8 -85 12 -33 4 -67 8 -75 9 -17 2 -119 15
-165 20 -16 2 -64 8 -105 14 -41 6 -91 12 -110 15 -19 2 -35 5 -35 6 0 1 -16
3 -35 5 -19 1 -56 6 -82 9 -26 4 -80 11 -120 16 -40 6 -93 13 -118 15 -25 3
-56 7 -70 10 -49 7 -106 15 -150 20 -55 6 -104 12 -195 25 -38 5 -89 12 -112
15 -50 6 -99 12 -163 21 -25 3 -58 7 -75 9 -16 2 -46 6 -65 9 -19 2 -57 7 -85
11 -27 3 -60 8 -72 11 -13 2 -23 2 -23 -1z"/>
<path d="M425 3807 c-137 -23 -295 -145 -363 -278 -107 -212 -70 -457 93 -623
103 -105 212 -155 355 -161 237 -11 445 121 531 338 18 45 41 143 40 172 -2
169 -53 296 -161 405 -62 61 -160 122 -222 136 -107 25 -177 28 -273 11z"/>
<path d="M7960 3810 c-19 -5 -45 -11 -58 -14 -54 -13 -156 -73 -211 -125 -93
-89 -152 -203 -166 -323 -3 -28 -8 -55 -11 -60 -3 -4 -2 -8 3 -8 4 0 8 -19 7
-43 -1 -138 110 -327 244 -411 47 -29 134 -66 172 -73 67 -12 191 -11 239 2
28 7 54 13 57 13 2 0 34 15 70 33 60 30 139 96 190 160 33 40 87 162 89 199 0
8 4 20 7 26 15 24 1 208 -21 268 -76 214 -265 354 -486 361 -49 1 -106 -1
-125 -5z"/>
<path d="M3399 3342 c-57 -58 -426 -419 -869 -852 -69 -67 -271 -266 -450
-441 -179 -175 -364 -357 -412 -404 -49 -47 -88 -87 -88 -89 0 -2 69 31 153
73 232 117 522 245 576 253 9 2 18 6 21 9 15 18 388 108 455 109 133 3 248 2
280 -3 74 -11 150 -29 159 -38 6 -5 16 -9 23 -9 7 0 43 -14 80 -32 234 -110
435 -336 621 -699 54 -104 143 -297 157 -339 1 -3 7 -18 14 -35 15 -39 19 -49
18 -55 0 -3 10 -24 22 -48 12 -23 19 -42 17 -42 -3 0 5 -24 18 -52 13 -29 26
-65 30 -80 3 -15 11 -40 18 -55 6 -15 12 -31 13 -35 2 -5 4 -10 5 -13 1 -3 3
-8 4 -12 11 -42 31 -100 38 -107 4 -6 8 -18 8 -27 0 -9 7 -32 15 -50 16 -37
16 -42 0 191 -3 36 -7 106 -10 155 -3 50 -8 126 -10 170 -3 44 -7 112 -10 150
-5 84 -13 214 -19 310 -10 140 -17 252 -21 330 -3 44 -8 114 -11 155 -3 41 -7
109 -9 150 -3 41 -7 109 -9 150 -14 211 -17 252 -22 330 -8 144 -14 232 -19
305 -6 92 -15 233 -19 318 -2 37 -7 71 -10 75 -4 3 -46 14 -94 24 -126 25
-125 24 -183 49 -80 33 -190 109 -278 189 -54 49 -110 90 -123 89 -7 0 -43
-30 -79 -67z"/>
<path d="M5205 3334 c-58 -50 -71 -60 -135 -106 -119 -85 -249 -133 -410 -153
-25 -3 -54 -7 -65 -9 -11 -3 -26 -5 -33 -5 -13 -1 -13 -71 4 -1456 2 -231 6
-578 8 -771 1 -193 6 -356 10 -362 4 -7 4 -12 -1 -12 -4 0 -6 -24 -4 -52 l4
-53 18 55 c9 30 17 57 16 60 -4 17 128 408 184 545 7 17 13 35 15 42 5 27 158
333 166 333 4 0 8 5 8 11 0 6 21 42 46 81 120 185 266 330 415 412 76 42 211
93 267 101 20 4 55 9 77 13 53 9 317 8 380 -1 28 -5 66 -10 85 -13 19 -3 51
-9 70 -14 19 -5 46 -11 60 -14 131 -25 435 -128 650 -219 14 -6 27 -11 30 -12
30 -7 80 -31 80 -37 0 -4 6 -8 14 -8 12 0 186 -77 261 -116 l30 -16 -31 29
c-42 38 -95 83 -99 83 -2 0 -16 11 -31 24 -26 22 -157 129 -194 159 -89 71
-227 184 -236 192 -6 5 -29 24 -50 40 -21 17 -46 38 -56 48 -10 9 -22 17 -27
17 -5 0 -11 4 -13 8 -1 4 -50 46 -108 92 -58 46 -107 87 -110 90 -4 4 -84 69
-118 95 -7 5 -21 18 -30 28 -9 9 -21 17 -26 17 -5 0 -14 6 -20 13 -6 8 -47 42
-91 78 -44 35 -85 68 -91 74 -6 5 -26 21 -44 35 -18 14 -42 33 -54 44 -11 10
-37 30 -56 45 -34 25 -71 56 -94 76 -6 6 -45 37 -86 69 -41 33 -77 63 -80 66
-3 3 -25 21 -50 40 -25 19 -50 39 -56 45 -16 14 -74 61 -174 141 -47 38 -90
73 -96 79 -7 5 -24 19 -40 30 -15 11 -33 26 -40 33 -16 15 -14 16 -49 -14z"/>
<path d="M2731 1404 c-124 -33 -234 -109 -314 -215 -25 -34 -73 -138 -84 -184
-11 -45 -10 -211 2 -255 15 -57 74 -180 86 -180 5 0 9 -6 9 -12 0 -19 112
-120 162 -147 83 -45 150 -63 245 -66 118 -4 157 4 263 54 131 61 229 180 285
346 13 37 15 180 5 235 -37 189 -163 337 -349 407 -83 32 -228 40 -310 17z"/>
<path d="M5939 1416 c-4 -4 -61 -16 -86 -18 -7 -1 -13 -5 -13 -8 0 -4 -12 -10
-27 -13 -30 -6 -109 -56 -157 -97 -38 -33 -97 -115 -124 -170 -26 -55 -55
-166 -47 -180 3 -6 1 -10 -5 -10 -6 0 -8 -5 -5 -11 4 -5 8 -40 10 -77 6 -117
69 -251 160 -338 61 -59 107 -88 190 -120 58 -22 87 -27 170 -28 119 -1 140 3
227 40 152 66 276 211 315 369 10 41 11 172 2 229 -10 59 -74 206 -90 206 -5
0 -9 6 -9 12 0 18 -114 122 -158 144 -20 10 -40 24 -44 29 -4 6 -8 7 -8 3 0
-3 -24 3 -52 14 -48 18 -236 36 -249 24z"/>
</g>
</svg>
